<?xml version="1.0" encoding="UTF-8" standalone="no"?>
<!-- Created with Inkscape (http://www.inkscape.org/) -->

<svg
   width="210mm"
   height="297mm"
   viewBox="0 0 210 297"
   version="1.1"
   id="svg1745"
   inkscape:version="1.1.1 (c3084ef, 2021-09-22)"
   sodipodi:docname="admin-icon.svg"
   xmlns:inkscape="http://www.inkscape.org/namespaces/inkscape"
   xmlns:sodipodi="http://sodipodi.sourceforge.net/DTD/sodipodi-0.dtd"
   xmlns="http://www.w3.org/2000/svg"
   xmlns:svg="http://www.w3.org/2000/svg">
  <sodipodi:namedview
     id="namedview1747"
     pagecolor="#ffffff"
     bordercolor="#666666"
     borderopacity="1.0"
     inkscape:pageshadow="2"
     inkscape:pageopacity="0.0"
     inkscape:pagecheckerboard="0"
     inkscape:document-units="mm"
     showgrid="false"
     inkscape:zoom="0.57994529"
     inkscape:cx="396.58914"
     inkscape:cy="561.25984"
     inkscape:window-width="3440"
     inkscape:window-height="1387"
     inkscape:window-x="1440"
     inkscape:window-y="25"
     inkscape:window-maximized="1"
     inkscape:current-layer="layer1" />
  <defs
     id="defs1742" />
  <g
     inkscape:label="Layer 1"
     inkscape:groupmode="layer"
     id="layer1">
    <path
       style="fill:#000000;stroke-width:0.204026"
       d="m 143.02158,243.91501 c -15.97228,-1.15344 -30.25209,-12.31358 -35.36126,-27.63601 -1.68691,-5.05907 -2.15392,-8.38164 -1.99955,-14.22612 0.0895,-3.39117 0.20525,-4.58342 0.64801,-6.67847 2.27696,-10.77405 8.51583,-20.00483 17.55459,-25.97306 3.77098,-2.48996 9.37087,-4.86184 13.61863,-5.7683 8.48879,-1.8115 17.5555,-0.88748 25.23895,2.57219 13.82046,6.22301 23.07744,19.45585 24.07289,34.41219 1.49053,22.39456 -15.37078,41.69025 -37.84657,43.3107 -1.56473,0.11281 -3.02859,0.19281 -3.25303,0.17777 -0.22442,-0.0151 -1.42712,-0.101 -2.67266,-0.19089 z m 10.01764,-7.31628 c 6.62067,-1.4277 12.40164,-4.56457 17.13471,-9.29765 4.75863,-4.75864 7.85559,-10.48389 9.32384,-17.23673 0.40882,-1.88026 0.46524,-2.70378 0.46141,-6.73289 -0.003,-3.96584 -0.0658,-4.87283 -0.45576,-6.6644 -2.28254,-10.48667 -8.79241,-18.95456 -18.18231,-23.65119 -6.68956,-3.34597 -14.63177,-4.37622 -21.97462,-2.85052 -13.51803,2.80879 -24.00195,13.53675 -26.52969,27.14732 -0.5765,3.1041 -0.52073,9.81928 0.1059,12.75168 0.66894,3.13039 1.49658,5.47689 2.98649,8.4671 1.72254,3.45714 3.55559,5.99924 6.32356,8.76963 5.17866,5.18318 11.50751,8.40462 18.85632,9.59803 2.68476,0.43602 9.30727,0.26954 11.95016,-0.30038 z m -10.16247,-12.99574 c -0.0775,-0.0775 -0.14089,-3.88886 -0.14089,-8.46971 v -8.32883 l -8.41611,-0.0533 -8.4161,-0.0533 -0.056,-3.31545 -0.056,-3.31543 h 8.47217 8.47216 v -8.46712 -8.4671 h 3.46847 3.46844 v 8.4671 8.46712 h 8.46712 8.46711 v 3.36645 3.36643 h -8.46485 -8.46485 l -0.0533,8.41611 -0.0533,8.41611 -3.27657,0.0559 c -1.80209,0.0308 -3.33995,-0.008 -3.41744,-0.085 z M 23.992242,222.09388 c 0,-0.90214 0.09761,-2.5318 0.216911,-3.62147 1.111045,-10.148 5.783228,-17.43279 14.870232,-23.18542 3.908014,-2.474 7.862729,-4.32274 17.35312,-8.11218 7.798904,-3.11404 11.03608,-4.88353 13.325757,-7.28401 1.998055,-2.09475 2.038709,-2.26255 2.141454,-8.83972 l 0.08833,-5.65487 -0.814333,-0.97599 c -2.58693,-3.10051 -5.318618,-8.73844 -6.373123,-13.15351 -0.263725,-1.10416 -0.523209,-1.73892 -0.762458,-1.86517 -0.918464,-0.48464 -2.876906,-2.77379 -3.586419,-4.19202 -1.415144,-2.82872 -2.317407,-6.8894 -2.091043,-9.41095 0.160848,-1.79185 0.876228,-4.06096 1.716886,-5.44581 l 0.595525,-0.98103 -0.5793,-2.76527 c -1.110799,-5.30236 -1.449385,-8.15885 -1.564212,-13.19642 -0.11445,-5.02166 0.05752,-7.33772 0.776708,-10.45978 1.574136,-6.833559 5.098124,-12.209351 10.308253,-15.725109 5.899268,-3.980789 15.061561,-6.20232 24.052872,-5.831969 6.562458,0.270306 11.314618,1.903831 14.670178,5.042803 1.16883,1.093369 1.46912,1.260118 3.10518,1.724245 7.97859,2.263407 12.86604,8.085327 14.38582,17.13634 0.39697,2.36415 0.33759,9.16006 -0.107,12.2416 -0.40422,2.80204 -1.26892,6.80449 -2.12526,9.83734 l -0.58851,2.08431 0.56493,0.85336 c 0.31072,0.46935 0.77867,1.50537 1.03986,2.30226 0.41309,1.2603 0.47146,1.82072 0.44835,4.30528 -0.0217,2.34013 -0.11909,3.2067 -0.5386,4.79464 -0.95249,3.60549 -2.43257,6.04219 -4.50613,7.41854 -0.63335,0.42039 -1.15153,0.89664 -1.15153,1.05831 0,0.73779 -1.96327,6.14954 -3.0373,8.37236 -1.32455,2.74129 -2.32508,4.39412 -3.5476,5.86053 l -0.81775,0.98089 0.10885,2.68327 0.10886,2.68328 -1.62966,1.94659 c -1.67545,2.00127 -4.32724,5.81737 -5.35519,7.70649 -0.54586,1.00313 -0.74155,1.15556 -3.2538,2.53444 -1.470168,0.80691 -2.879403,1.59947 -3.131662,1.76124 l -0.458641,0.29413 0.820038,0.97943 c 0.893549,1.06725 2.276995,3.26429 2.191105,3.47967 -0.0295,0.0739 -1.584222,1.47459 -3.454995,3.11267 -1.870772,1.63806 -3.464604,3.08054 -3.541847,3.20553 -0.07723,0.12498 0.366832,1.20669 0.986824,2.40378 3.327567,6.42494 6.044638,14.61883 6.573908,19.82489 0.1387,1.36449 0.48589,2.49788 1.39058,4.53958 l 0.51983,1.17316 H 63.664231 23.992242 Z m 58.759247,-6.26578 c 1.117491,-5.63917 4.127053,-13.92425 6.74315,-18.56335 0.33126,-0.58742 0.602294,-1.1562 0.602294,-1.26395 0,-0.20955 -2.181782,-2.05458 -2.429592,-2.05458 -0.08134,0 -1.690877,1.93192 -3.576754,4.29318 -3.826841,4.79145 -4.328811,5.20954 -6.055616,5.04362 -0.534905,-0.0514 -1.190755,-0.23642 -1.457433,-0.41117 -0.266686,-0.17473 -2.627331,-2.92011 -5.245879,-6.10085 -2.618556,-3.18074 -4.877165,-5.91027 -5.019138,-6.0656 -0.217426,-0.23791 -0.62273,-0.12064 -2.569742,0.74348 -1.271385,0.56426 -4.652823,1.96124 -7.514299,3.10439 -13.889889,5.54896 -19.666052,9.6817 -22.962506,16.4292 -1.004132,2.05534 -1.928767,4.76758 -1.928767,5.65765 0,0.34358 1.243933,0.36115 25.590899,0.36115 H 82.51901 Z m -0.434976,-26.16643 c 3.268791,-4.08101 3.639372,-4.61934 3.33827,-4.84939 -0.58196,-0.44464 -7.712955,-4.33183 -7.946683,-4.33183 -0.12203,0 -0.50016,0.49309 -0.840281,1.09576 -0.859665,1.52325 -2.462532,3.39916 -3.790734,4.4365 l -1.120221,0.87492 0.74961,0.92795 c 3.259986,4.03559 5.630023,6.7503 5.768316,6.60717 0.09061,-0.0938 1.819385,-2.23625 3.841723,-4.76108 z m 16.149779,-12.79533 6.498878,-3.61411 -0.12054,-5.73333 -0.12055,-5.73334 0.93239,-0.54642 c 1.38832,-0.81361 2.26324,-1.97574 3.79794,-5.04464 1.68571,-3.37093 2.59455,-6.12763 3.18469,-9.66002 l 0.44722,-2.67683 1.51203,-0.10198 c 0.8316,-0.0561 1.62852,-0.17738 1.77093,-0.26947 0.4066,-0.26299 1.2072,-1.97948 1.59402,-3.41758 0.20641,-0.76751 0.36077,-2.11566 0.37206,-3.24986 0.0252,-2.53237 -0.21751,-2.99137 -2.10671,-3.98412 l -1.41332,-0.74269 0.52356,-1.36007 c 3.64052,-9.45744 4.95777,-19.98715 3.31548,-26.50317 -1.49998,-5.951395 -5.56133,-9.375752 -12.04594,-10.156632 -1.11036,-0.133709 -1.15203,-0.1623 -1.78919,-1.227559 -2.24153,-3.747585 -8.148968,-5.359034 -16.762573,-4.572545 -13.665678,1.247784 -20.906349,7.146992 -22.55941,18.379856 -0.269863,1.83378 -0.318159,3.2112 -0.231476,6.60183 0.139712,5.46451 0.77532,9.65892 2.486847,16.41087 0.282394,1.11402 0.513277,2.10067 0.513069,2.19255 -2.01e-4,0.0918 -0.411072,0.42651 -0.913044,0.74365 -2.056205,1.29903 -2.631387,2.9116 -2.065613,5.79109 0.435232,2.21511 0.988814,3.65702 1.765577,4.59875 0.625875,0.7588 0.643565,0.7651 2.146419,0.7651 0.833447,0 1.517527,0.0689 1.52018,0.15302 0.0684,2.1667 0.484583,5.21352 0.912681,6.68187 1.411381,4.84096 4.163519,9.52987 6.427458,10.95069 l 0.510069,0.3201 0.102008,5.66982 0.102008,5.66982 6.528861,3.63537 c 3.590867,1.99946 6.559513,3.63735 6.596982,3.63976 0.03747,0.002 2.992622,-1.62198 6.567002,-3.60974 z"
       id="path1854" />
  </g>
</svg>
