<svg xmlns="http://www.w3.org/2000/svg" xmlns:xlink="http://www.w3.org/1999/xlink" width="1080" zoomAndPan="magnify" viewBox="0 0 810 809.999993" height="1080" preserveAspectRatio="xMidYMid meet" version="1.0"><defs><clipPath id="d7f131c805"><path d="M 394.355469 566.941406 L 789.832031 566.941406 L 789.832031 638.820312 L 394.355469 638.820312 Z M 394.355469 566.941406 " clip-rule="nonzero"/></clipPath><clipPath id="8fab8b48d8"><path d="M 394.355469 171.179688 L 789.832031 171.179688 L 789.832031 243.058594 L 394.355469 243.058594 Z M 394.355469 171.179688 " clip-rule="nonzero"/></clipPath><clipPath id="6991ad2700"><path d="M 113.09375 369.058594 L 789.832031 369.058594 L 789.832031 440.941406 L 113.09375 440.941406 Z M 113.09375 369.058594 " clip-rule="nonzero"/></clipPath><clipPath id="f54ecd1dde"><path d="M 24 137.355469 L 342 137.355469 L 342 672 L 24 672 Z M 24 137.355469 " clip-rule="nonzero"/></clipPath></defs><g clip-path="url(#d7f131c805)"><path fill="#f4753c" d="M 394.355469 566.941406 L 789.832031 566.941406 L 789.832031 638.820312 L 394.355469 638.820312 Z M 394.355469 566.941406 " fill-opacity="1" fill-rule="nonzero"/></g><g clip-path="url(#8fab8b48d8)"><path fill="#f4753c" d="M 394.355469 171.179688 L 789.832031 171.179688 L 789.832031 243.058594 L 394.355469 243.058594 Z M 394.355469 171.179688 " fill-opacity="1" fill-rule="nonzero"/></g><g clip-path="url(#6991ad2700)"><path fill="#f4753c" d="M 113.09375 369.058594 L 789.832031 369.058594 L 789.832031 440.941406 L 113.09375 440.941406 Z M 113.09375 369.058594 " fill-opacity="1" fill-rule="nonzero"/></g><g clip-path="url(#f54ecd1dde)"><path fill="#f4753c" d="M 24.449219 403.675781 L 291.949219 136.175781 L 341.808594 186.035156 L 124.167969 403.675781 L 341.808594 621.316406 L 291.949219 671.175781 Z M 24.449219 403.675781 " fill-opacity="1" fill-rule="nonzero"/></g></svg>