<svg width="210mm" height="297mm" viewBox="0 0 210 297" xmlns="http://www.w3.org/2000/svg"><path style="fill:#000;stroke-width:.169543" d="M74.144 190.95c-.052-.21-.073-1.602-.046-3.094l.048-2.713 2.035-.11c4.88-.264 8.578-1.815 11.949-5.01 3.447-3.268 5.358-7.182 5.768-11.815.216-2.436.21-6.76-.01-7.716-.227-.983-.717-1.644-1.523-2.056-.647-.33-1.107-.335-30.631-.336-21.346 0-30.168-.055-30.648-.188-.879-.244-1.87-1.244-2.108-2.127-.134-.499-.174-15.335-.143-52.976.042-51.04.05-52.299.366-52.934.178-.358.63-.854 1.005-1.102l.682-.451 75.349-.043c73.914-.042 75.363-.037 76.083.281.479.212.9.576 1.212 1.048l.479.723.046 52.487c.042 47.594.02 52.552-.223 53.198-.325.861-1.195 1.664-2.065 1.905-.436.121-10.24.18-30.65.182l-30.01.004-.674.382a3.253 3.253 0 0 0-1.057 1.057c-.368.65-.382.83-.385 4.937-.004 5.497.335 7.356 1.907 10.488 1.591 3.17 4.51 6.154 7.755 7.93 2.403 1.314 5.794 2.158 8.676 2.158h1.496v6.273H74.238Zm103.44-39.479c.316-.349.324-1.422.37-48.023.025-26.217.005-47.84-.047-48.052-.051-.212-.244-.537-.428-.72-.332-.333-.864-.336-71.016-.336-69.34 0-70.688.007-71.081.325l-.4.324v48.062c0 47.026.007 48.071.323 48.42l.323.357H177.26ZM54.042 132.513c-.388-.389-.495-.647-.495-1.2 0-.552.107-.81.495-1.2l.496-.495H88.16l.517.517c.466.466.508.594.427 1.308-.065.578-.21.896-.54 1.179l-.45.387H54.539Zm54.437-18.408v-12.97h6.782v25.94h-6.782zm15.64-5.044.043-18.014h6.612l.043 18.014.043 18.014h-6.785zm15.556 8.943v-9.07h6.782v18.14h-6.782zm15.598-6.951v-16.03l3.349.047 3.348.046v31.874l-3.348.046-3.349.046zm-101.23 14c-.39-.388-.496-.647-.496-1.2 0-.552.107-.81.495-1.2l.496-.495H88.16l.495.496c.698.697.698 1.701 0 2.4l-.495.495H54.538Zm14-12.307c-2.437-.395-4.429-1.032-6.612-2.115-6.254-3.102-10.577-8.705-12.077-15.652-.38-1.758-.418-6.726-.066-8.51 1.587-8.04 7.265-14.541 14.94-17.107 1.56-.522 4.265-1.119 5.066-1.119.25 0 .271 1.008.237 11.605l-.038 11.606.462.32c.367.255 12.563 7.323 18.654 10.811l1.238.71-.997 1.25c-3.292 4.137-8.065 7.02-13.309 8.04-1.991.386-5.624.465-7.498.161zm14.114-17.932-9.113-5.276V78.891c0-10.028.018-10.648.297-10.647.82.001 3.543.593 5.073 1.102 9.193 3.06 15.308 11.56 15.308 21.277 0 1.992-.186 3.515-.663 5.432-.437 1.754-1.344 4.065-1.59 4.049-.109-.007-4.3-2.388-9.312-5.29zm59.928 4.144c-1.24-.441-2.644-1.448-3.32-2.38-.312-.431-2.27-3.493-4.35-6.803-2.08-3.31-3.94-6.198-4.135-6.417-.933-1.05-2.86-1.371-4.18-.698-.51.26-1.935 1.858-5.784 6.486-2.81 3.376-5.161 6.161-5.228 6.188-.138.056-2.625-1.986-2.625-2.155 0-.062 2.341-2.932 5.202-6.378 5.585-6.727 6.121-7.247 8.078-7.815 1.484-.432 3.563-.261 4.946.405 1.778.857 2.475 1.743 6.773 8.604 2.364 3.774 4.197 6.52 4.601 6.893a3.368 3.368 0 0 0 4.756-.146c.564-.59 11.675-15.4 11.675-15.562 0-.039-.352-.34-.783-.67-.518-.395-.705-.627-.551-.685.92-.345 5.85-1.953 5.991-1.953.118 0 .14.927.066 2.84l-.127 3.32-.018.482-.83-.61-.83-.608-5.972 7.971c-3.285 4.385-6.262 8.201-6.615 8.481-1.262 1-2.46 1.417-4.233 1.476-1.25.041-1.812-.018-2.507-.266z"/></svg>