<?xml version="1.0" encoding="UTF-8" standalone="no"?>
<!-- Created with Inkscape (http://www.inkscape.org/) -->

<svg
   width="210mm"
   height="297mm"
   viewBox="0 0 210 297"
   version="1.1"
   id="svg5"
   inkscape:version="1.1.1 (c3084ef, 2021-09-22)"
   sodipodi:docname="down-chevron.svg"
   xmlns:inkscape="http://www.inkscape.org/namespaces/inkscape"
   xmlns:sodipodi="http://sodipodi.sourceforge.net/DTD/sodipodi-0.dtd"
   xmlns="http://www.w3.org/2000/svg"
   xmlns:svg="http://www.w3.org/2000/svg">
  <sodipodi:namedview
     id="namedview7"
     pagecolor="#ffffff"
     bordercolor="#666666"
     borderopacity="1.0"
     inkscape:pageshadow="2"
     inkscape:pageopacity="0.0"
     inkscape:pagecheckerboard="0"
     inkscape:document-units="mm"
     showgrid="false"
     inkscape:zoom="0.57994529"
     inkscape:cx="890.60126"
     inkscape:cy="561.25984"
     inkscape:window-width="1440"
     inkscape:window-height="847"
     inkscape:window-x="0"
     inkscape:window-y="25"
     inkscape:window-maximized="1"
     inkscape:current-layer="layer1" />
  <defs
     id="defs2" />
  <g
     inkscape:label="Layer 1"
     inkscape:groupmode="layer"
     id="layer1">
    <path
       style="fill:#000000;stroke-width:0.180735"
       d="m 107.30374,176.81154 c -0.39762,-0.13183 -1.02241,-0.39558 -1.38844,-0.58612 -0.77212,-0.40193 -1.78188,-1.39512 -37.469711,-36.85499 -14.811282,-14.71667 -28.703331,-28.50257 -30.871222,-30.63533 -3.501604,-3.44487 -4.013708,-4.02361 -4.587377,-5.18435 -0.569452,-1.15221 -0.646697,-1.473 -0.653708,-2.71475 -0.0066,-1.165281 0.0811,-1.610771 0.508365,-2.582941 0.468025,-1.0649 1.024598,-1.68694 5.950844,-6.65075 2.988991,-3.01179 5.803225,-5.71321 6.253851,-6.003162 1.165047,-0.749645 2.840415,-1.143719 4.194338,-0.98658 1.734592,0.201322 2.898975,0.951652 5.606043,3.612542 1.316293,1.29384 8.208427,8.03928 15.315854,14.989871 7.107422,6.95058 14.915202,14.59536 17.350612,16.9884 2.43542,2.39303 6.42064,6.30299 8.85605,8.68881 2.43541,2.38581 6.239961,6.12609 8.454561,8.31171 2.21459,2.18562 4.10166,3.97386 4.19346,3.97386 0.0918,0 1.98043,-1.79089 4.19693,-3.97976 4.35034,-4.29611 13.7236,-13.48211 34.75506,-34.06075 7.35593,-7.197551 14.32789,-14.026541 15.49323,-15.175518 2.41818,-2.38422 3.64251,-3.152349 5.3383,-3.349165 1.35392,-0.157139 3.02929,0.236935 4.19433,0.98658 0.45063,0.289952 3.26486,2.991372 6.25385,6.003162 4.8997,4.93706 5.48439,5.58975 5.94114,6.63211 0.41719,0.95207 0.50551,1.40711 0.5004,2.578041 -0.005,1.2027 -0.093,1.6096 -0.56924,2.63931 -0.5065,1.09517 -1.02074,1.66982 -5.12162,5.72332 -2.50722,2.47826 -16.47358,16.34827 -31.03635,30.82225 -38.28546,38.05203 -35.97211,35.79197 -37.26606,36.40761 -1.29935,0.6182 -3.21936,0.79589 -4.39349,0.40659 z"
       id="path854" />
  </g>
</svg>
