<?xml version="1.0" encoding="UTF-8"?><svg id="a" xmlns="http://www.w3.org/2000/svg" viewBox="0 0 65 65"><defs><style>.b{fill:#253e45;}</style></defs><path class="b" d="M57.75,38.11l-10.41-12.9c-1.77-2.19-5.12-3.18-8.21-2.62v-.03c0-9.13-7.43-16.57-16.56-16.57S6,13.43,6,22.57c0,3.86,2.59,7.81,5.64,11.14l-1.48,.61c-2.06,.85-3.52,2.4-3.99,4.26-.42,1.63-.02,3.35,1.09,4.73l10.41,12.9c1.44,1.79,3.95,2.79,6.51,2.79,1.2,0,2.41-.22,3.53-.68l27.15-11.22c2.06-.85,3.52-2.41,3.99-4.26,.42-1.63,.02-3.35-1.09-4.72ZM11,22.57c0-6.38,5.19-11.57,11.57-11.57s11.57,5.19,11.57,11.57c0,4.26-6.6,10.52-11.57,14.14-4.96-3.62-11.57-9.88-11.57-14.14Zm42.99,19.03c-.05,.18-.32,.58-1.05,.88l-27.15,11.22c-1.58,.65-3.57,.2-4.24-.63l-10.41-12.9c-.17-.21-.14-.31-.13-.35,.05-.18,.32-.58,1.05-.88l3.49-1.44c2.68,2.33,5.03,3.95,5.62,4.34l1.39,.93,1.39-.93c1.21-.81,9.68-6.65,13.41-13.36l1.84-.76c1.58-.65,3.57-.2,4.24,.63l10.41,12.9c.17,.21,.14,.31,.13,.35Z"/><circle class="b" cx="22.57" cy="22.66" r="4.77"/></svg>