<?xml version="1.0" encoding="UTF-8"?><svg id="a" xmlns="http://www.w3.org/2000/svg" viewBox="0 0 65 65"><defs><style>.b{fill:#f4753c;}</style></defs><path class="b" d="M32.5,6c-14.61,0-26.5,11.89-26.5,26.5s11.89,26.5,26.5,26.5,26.5-11.89,26.5-26.5S47.11,6,32.5,6Zm0,48c-11.85,0-21.5-9.64-21.5-21.5S20.65,11,32.5,11s21.5,9.65,21.5,21.5-9.65,21.5-21.5,21.5Z"/><path class="b" d="M41.56,19.99l-20.43,4.12c-.12,.02-.24,.06-.35,.1-2.08,.75-3.46,2.66-3.5,4.87-.05,2.21,1.24,4.18,3.29,5.02l6.98,2.86,2.86,6.98c.82,2.01,2.74,3.29,4.9,3.29,.04,0,.08,0,.12,0,2.21-.05,4.12-1.42,4.88-3.5,.04-.12,.07-.23,.1-.35l4.12-20.43c.17-.82-.09-1.67-.68-2.26-.59-.59-1.44-.85-2.26-.68Zm-6.02,22.13c-.04,.05-.1,.1-.23,.1-.19,0-.26-.12-.29-.19l-3.26-7.94c-.25-.62-.75-1.11-1.37-1.37l-7.94-3.25c-.07-.03-.19-.08-.19-.29,0-.13,.05-.19,.1-.23l16.49-3.32-3.32,16.49Z"/></svg>