<?xml version="1.0" encoding="UTF-8"?><svg id="a" xmlns="http://www.w3.org/2000/svg" viewBox="0 0 65 65"><defs><style>.b{fill:#f2f2f2;}</style></defs><path class="b" d="M50.5,6.5H14.5c-4.41,0-8,3.59-8,8V50.5c0,4.41,3.59,8,8,8H50.5c4.41,0,8-3.59,8-8V14.5c0-4.41-3.59-8-8-8Zm4,44c0,2.21-1.79,4-4,4h-9.98c2.94-1.39,5.79-3.24,8.26-5.72,2.25-2.25,4.18-4.94,5.72-7.88v9.59Zm-8.55-4.54c-7.43,7.43-18.88,8.54-25.04,8.54h-6.41c-2.21,0-4-1.79-4-4V14.5c0-2.21,1.79-4,4-4H50.5c2.21,0,4,1.79,4,4v10.57c0,7.61-3.27,15.61-8.55,20.88Z"/><path class="b" d="M27.52,18.36c-1.98,.4-5.56,2.01-7.22,8.38-1,3.82-.05,7.36,2.41,9.02,.7,.47,1.79,.97,3.28,.97,1.63,0,3.74-.6,6.33-2.51,2.69-1.99,4.22-4.16,4.55-6.46,.41-2.82-1.06-5.14-2.19-6.64-1.67-2.21-4.48-3.29-7.15-2.75Zm5.39,8.82c-.17,1.21-1.17,2.49-2.97,3.82-2.13,1.58-4,2.12-4.99,1.45-1-.68-1.32-2.61-.78-4.7,.81-3.11,2.32-5.1,4.13-5.46,.2-.04,.4-.06,.59-.06,.99,0,1.96,.48,2.59,1.3,1.13,1.49,1.57,2.62,1.42,3.65Z"/><path class="b" d="M35.71,13.28c-2.07-.87-7.47-2.61-12.92-.08-4.4,2.04-7.63,6.27-9.6,12.58-2.92,9.31-1.03,17.06,5.06,20.72,2.15,1.29,4.6,1.91,7.16,1.91,4.96,0,10.32-2.34,14.62-6.7,5.06-5.14,7.33-11.29,6.21-16.88-1.01-5.02-4.74-9.12-10.52-11.55Zm1.46,25.62c-5.21,5.29-12.15,7-16.87,4.17-4.4-2.64-5.64-8.66-3.31-16.09,1.63-5.19,4.14-8.6,7.47-10.15,1.51-.7,3.03-.95,4.43-.95,2.31,0,4.28,.68,5.26,1.09,4.58,1.92,7.4,4.91,8.15,8.65,.84,4.2-1.08,9.17-5.14,13.29Z"/></svg>