<?xml version="1.0" encoding="UTF-8" standalone="no"?>
<!-- Created with Inkscape (http://www.inkscape.org/) -->

<svg
   width="210mm"
   height="297mm"
   viewBox="0 0 210 297"
   version="1.1"
   id="svg5"
   inkscape:version="1.1.1 (c3084ef, 2021-09-22)"
   sodipodi:docname="image-icon.svg"
   xmlns:inkscape="http://www.inkscape.org/namespaces/inkscape"
   xmlns:sodipodi="http://sodipodi.sourceforge.net/DTD/sodipodi-0.dtd"
   xmlns="http://www.w3.org/2000/svg"
   xmlns:svg="http://www.w3.org/2000/svg">
  <sodipodi:namedview
     id="namedview7"
     pagecolor="#ffffff"
     bordercolor="#666666"
     borderopacity="1.0"
     inkscape:pageshadow="2"
     inkscape:pageopacity="0.0"
     inkscape:pagecheckerboard="0"
     inkscape:document-units="mm"
     showgrid="false"
     inkscape:zoom="0.57994529"
     inkscape:cx="396.58914"
     inkscape:cy="561.25984"
     inkscape:window-width="3440"
     inkscape:window-height="1387"
     inkscape:window-x="1440"
     inkscape:window-y="25"
     inkscape:window-maximized="1"
     inkscape:current-layer="layer1" />
  <defs
     id="defs2" />
  <g
     inkscape:label="Layer 1"
     inkscape:groupmode="layer"
     id="layer1">
    <path
       style="fill:#000000;stroke-width:0.396854"
       d="M 49.404952,210.89628 C 44.506127,209.708 39.93067,206.14242 38.033566,202.03474 l -0.870735,-1.88536 -0.106045,-48.61471 c -0.0735,-33.71325 0.0255,-49.24964 0.323264,-50.6861 1.060851,-5.118248 4.997955,-10.126569 9.831024,-12.505881 l 2.63445,-1.296925 h 56.758586 56.75857 l 2.9764,1.433177 c 5.10896,2.460025 8.57873,6.300954 10.29531,11.39657 0.82902,2.460869 0.83131,2.625529 0.72494,51.966569 -0.12255,56.84863 0.2126,51.98133 -3.86112,56.06948 -3.8309,3.84447 1.51757,3.55319 -64.53067,3.51443 -44.556362,-0.0261 -57.978669,-0.14549 -59.562557,-0.52971 z m 118.617368,-8.37142 c 0.54877,-0.54877 1.10888,-1.55332 1.24467,-2.23229 0.13576,-0.67901 0.24691,-5.11538 0.24691,-9.85861 v -8.62407 l -13.09497,-10.78645 -13.09496,-10.78644 -10.02182,8.44743 c -5.51202,4.64609 -10.29934,8.66345 -10.6385,8.92747 -0.52455,0.40833 -2.32763,-1.3811 -12.07035,-11.97891 l -11.453686,-12.45891 -1.819572,1.24239 c -3.531376,2.41122 -34.478354,23.91524 -43.390106,30.15035 l -9.028445,6.31676 v 3.84628 c 0,3.4332 0.104996,4.00072 0.977306,5.2845 0.579646,0.85305 1.822378,1.85935 3.054325,2.47325 l 2.077034,1.03503 h 58.007194 58.00719 z M 77.346325,159.71594 c 12.497033,-8.68251 22.880915,-15.72712 23.075305,-15.65472 0.19437,0.0725 4.85664,5.04272 10.36059,11.04514 5.50394,6.00243 10.47833,11.39896 11.05419,11.99232 l 1.04705,1.0788 10.09352,-8.51983 c 5.55142,-4.68591 10.19463,-8.51852 10.31823,-8.51689 0.12359,0.002 6.02869,4.7952 13.12248,10.65244 l 12.89779,10.64949 0.11624,-34.56294 c 0.0775,-23.08234 -0.0209,-35.03825 -0.2964,-35.99388 -0.56858,-1.971811 -3.30353,-4.958669 -5.61126,-6.128085 l -1.92082,-0.973361 H 106.56132 51.519394 l -1.65941,0.972476 c -0.912658,0.534858 -2.14294,1.606434 -2.733941,2.38128 -2.34693,3.077 -2.224492,0.641037 -2.224492,44.25386 v 40.09287 l 4.861479,-3.49131 c 2.673808,-1.92022 15.086321,-10.59515 27.583354,-19.27766 z m 49.633315,-23.7875 c -2.94138,-1.23997 -5.11907,-2.99752 -6.60286,-5.32905 -3.71829,-5.84268 -2.99206,-13.10019 1.78765,-17.86432 7.12288,-7.09964 18.77373,-4.97737 23.07767,4.20373 0.89811,1.91584 1.05578,2.78561 1.05578,5.8239 0,3.02984 -0.15864,3.91005 -1.04576,5.80201 -1.42051,3.0295 -3.41954,5.13275 -6.38798,6.72098 -2.199,1.17654 -2.90202,1.34615 -6.05931,1.46186 -3.05981,0.11204 -3.89467,-0.006 -5.82519,-0.81911 z m 8.01981,-7.51057 c 4.54736,-2.29724 4.88322,-8.04063 0.65347,-11.17466 -1.75948,-1.30368 -5.24734,-1.1662 -7.14559,0.28168 -2.05825,1.5699 -2.77176,3.13816 -2.56457,5.63673 0.21242,2.56145 1.45368,4.39646 3.64797,5.393 2.13837,0.97112 3.27248,0.94245 5.40872,-0.13679 z"
       id="path854" />
  </g>
</svg>
