<svg xmlns="http://www.w3.org/2000/svg" xmlns:xlink="http://www.w3.org/1999/xlink" version="1.1" x="0px" y="0px" viewBox="0 0 1024 1280" style="enable-background:new 0 0 1024 1024;" xml:space="preserve"><g><g><g><path d="M900,659.6c-13.2,5.2-26.4,10.4-39.5,15.6c-31.5,12.4-63,24.8-94.4,37.2c-38.1,15-76.1,30-114.2,45     c-33,13-66.1,26-99.1,39c-16,6.3-32.3,12-48,18.9c-0.2,0.1-0.5,0.2-0.7,0.3c5.3,0,10.6,0,16,0c-13.2-5.2-26.4-10.4-39.5-15.6     c-31.5-12.4-63-24.8-94.4-37.2c-38.1-15-76.1-30-114.2-45c-33-13-66.1-26-99.1-39c-16-6.3-31.9-13.1-48-18.9     c-0.2-0.1-0.5-0.2-0.7-0.3c0,19.3,0,38.6,0,57.9c25.2-9.9,50.3-19.8,75.5-29.7c40.3-15.9,80.6-31.7,120.9-47.6     c9.2-3.6,18.4-7.3,27.7-10.9c-5.3,0-10.6,0-16,0c19.5,7.7,39,15.4,58.6,23.1c30.9,12.2,61.9,24.4,92.8,36.6     c6.7,2.7,13.5,5.7,20.3,8c10.7,3.6,19.6-1.2,29-5c29.5-11.6,58.9-23.2,88.4-34.8c23.2-9.1,46.6-17.7,69.6-27.4     c0.4-0.2,0.8-0.3,1.2-0.5c-5.3,0-10.6,0-16,0c25.2,9.9,50.3,19.8,75.5,29.7c40.3,15.9,80.6,31.7,120.9,47.6     c9.2,3.6,18.4,7.3,27.7,10.9c6.8,2.7,17.1,0.5,23.1-3c6.2-3.6,12.2-10.8,13.8-17.9c1.7-7.7,1.4-16.3-3-23.1     c-4.5-7-10.3-10.8-17.9-13.8c-20.7-8.2-41.4-16.3-62.1-24.5c-37.1-14.6-74.2-29.2-111.3-43.8c-13.2-5.2-26.3-10.4-39.5-15.5     c-9.4-3.7-17.2-7.8-28.1-4c-10,3.4-19.7,7.8-29.5,11.6c-17.9,7-35.8,14.1-53.7,21.1c-28.7,11.3-57.8,22.1-86.3,34     c-0.5,0.2-1,0.4-1.5,0.6c5.3,0,10.6,0,16,0c-24.5-9.6-49-19.3-73.5-28.9c-31.2-12.3-62.5-24.6-93.7-36.9     c-6.8-2.7-12.9-4.2-20.7-1.8c-1.8,0.5-3.5,1.4-5.2,2.1c-11.2,4.4-22.4,8.8-33.7,13.3c-36.5,14.4-73.1,28.8-109.6,43.2     c-24.8,9.8-49.6,19.4-74.3,29.3c-0.4,0.2-0.8,0.3-1.2,0.5c-6.3,2.5-11.3,5.3-15.6,10.8c-3.9,5.1-6.7,11.6-6.4,18.2     c0.2,5.3,1.6,10.4,4.1,15.1c3.8,7.2,10.7,11,17.9,13.8c13.2,5.2,26.4,10.4,39.5,15.6c31.6,12.5,63.3,24.9,94.9,37.4     c38.2,15.1,76.4,30.1,114.7,45.2c33,13,65.9,26,98.9,38.9c15.8,6.2,31.5,13.1,47.5,18.7c8.8,3.1,15,0.8,22.4-2.1     c8.3-3.3,16.5-6.5,24.8-9.8c29.9-11.8,59.9-23.6,89.8-35.4c37.9-14.9,75.8-29.8,113.6-44.8c34.3-13.5,68.7-27,103-40.6     c18.8-7.4,37.5-14.8,56.3-22.2c0.9-0.3,1.7-0.7,2.6-1c7.5-3,13.7-6.6,17.9-13.8c3.8-6.4,5.4-15.9,3-23.1     c-2.3-7.3-6.8-14.3-13.8-17.9C916.4,659.1,907.4,656.7,900,659.6z"/></g></g><g><g><path d="M900,483.1c-20.6,8.1-41.1,16.2-61.7,24.3c-37.1,14.6-74.2,29.2-111.3,43.8     c-17.4,6.8-34.8,13.7-52.2,20.5c-27.8,11-55.7,21.9-83.5,32.9c-28.6,11.3-57.5,22-85.8,33.8c-0.5,0.2-1,0.4-1.5,0.6     c5.3,0,10.6,0,16,0c-24.3-9.6-48.7-19.2-73-28.8c-31.3-12.3-62.7-24.7-94-37c-14.8-5.8-29.7-11.7-44.5-17.5     c-36.5-14.4-72.9-28.7-109.4-43.1c-24.6-9.7-49.1-19.9-73.9-29.1c-0.4-0.1-0.8-0.3-1.2-0.5c0,19.3,0,38.6,0,57.9     c25.2-9.9,50.3-19.8,75.5-29.7c40.3-15.9,80.6-31.7,120.9-47.6c9.2-3.6,18.4-7.3,27.7-10.9c-5.3,0-10.6,0-16,0     c19.5,7.7,39,15.4,58.6,23.1c30.9,12.2,61.9,24.4,92.8,36.6c6.7,2.7,13.5,5.7,20.3,8c10.7,3.6,19.6-1.2,29-5     c29.5-11.6,58.9-23.2,88.4-34.8c23.2-9.1,46.6-17.7,69.6-27.4c0.4-0.2,0.8-0.3,1.2-0.5c-5.3,0-10.6,0-16,0     c25.2,9.9,50.3,19.8,75.5,29.7c40.3,15.9,80.6,31.7,120.9,47.6c9.2,3.6,18.4,7.3,27.7,10.9c6.8,2.7,17.1,0.5,23.1-3     c6.2-3.6,12.2-10.8,13.8-17.9c1.7-7.7,1.4-16.3-3-23.1c-4.5-7-10.3-10.8-17.9-13.8c-20.7-8.2-41.4-16.3-62.1-24.5     c-37.1-14.6-74.2-29.2-111.3-43.8c-13.2-5.2-26.3-10.4-39.5-15.5c-9.4-3.7-17.2-7.8-28.1-4c-10,3.4-19.7,7.8-29.5,11.6     c-17.9,7-35.8,14.1-53.7,21.1c-28.7,11.3-57.8,22.1-86.3,34c-0.5,0.2-1,0.4-1.5,0.6c5.3,0,10.6,0,16,0     c-24.5-9.6-49-19.3-73.5-28.9c-31.2-12.3-62.5-24.6-93.7-36.9c-6.8-2.7-12.9-4.2-20.7-1.8c-1.8,0.5-3.5,1.4-5.2,2.1     c-11.2,4.4-22.4,8.8-33.7,13.3c-36.5,14.4-73.1,28.8-109.6,43.2c-24.8,9.8-49.6,19.4-74.3,29.3c-0.4,0.2-0.8,0.3-1.2,0.5     c-6.3,2.5-11.3,5.3-15.6,10.8c-3.9,5.1-6.7,11.6-6.4,18.2c0.2,5.3,1.6,10.4,4.1,15.1c3.8,7.2,10.7,11,17.9,13.8     c20.6,8.1,41.1,16.2,61.7,24.3c37.2,14.7,74.5,29.3,111.7,44c17.3,6.8,34.6,13.6,51.9,20.4c28.1,11.1,56.2,22.1,84.3,33.2     c28.4,11.2,56.5,23.1,85.2,33.5c11.3,4.1,20.1-0.6,30-4.6c15.2-6,30.5-12,45.7-18c33.9-13.4,67.9-26.7,101.8-40.1     c13.4-5.3,26.8-10.6,40.2-15.8c35.6-14,71.3-28.1,106.9-42.1c28-11,56-22.1,84-33.1c1.5-0.6,3-1.2,4.5-1.8     c7.5-3,13.7-6.6,17.9-13.8c3.8-6.4,5.4-15.9,3-23.1c-2.3-7.3-6.8-14.3-13.8-17.9C916.4,482.6,907.4,480.2,900,483.1z"/></g></g><g><g><path d="M900,306.6c-20.6,8.1-41.1,16.2-61.7,24.3c-37.1,14.6-74.2,29.2-111.3,43.8     c-17.4,6.8-34.8,13.7-52.2,20.5c-27.8,11-55.7,21.9-83.5,32.9c-28.6,11.3-57.5,22-85.8,33.8c-0.5,0.2-1,0.4-1.5,0.6     c5.3,0,10.6,0,16,0c-24.3-9.6-48.7-19.2-73-28.8c-31.3-12.3-62.7-24.7-94-37c-14.8-5.8-29.7-11.7-44.5-17.5     c-36.5-14.4-72.9-28.7-109.4-43.1c-24.6-9.7-49.1-19.9-73.9-29.1c-0.4-0.1-0.8-0.3-1.2-0.5c0,19.3,0,38.6,0,57.9     c13.2-5.2,26.4-10.4,39.5-15.6c31.5-12.4,63-24.8,94.4-37.2c38.1-15,76.1-30,114.2-45c33-13,66.1-26,99.1-39     c16-6.3,32.3-12,48-18.9c0.2-0.1,0.5-0.2,0.7-0.3c-5.3,0-10.6,0-16,0c13.2,5.2,26.4,10.4,39.5,15.6c31.5,12.4,63,24.8,94.4,37.2     c38.1,15,76.1,30,114.2,45c33,13,66.1,26,99.1,39c16,6.3,31.8,13.2,48,18.9c0.2,0.1,0.5,0.2,0.7,0.3c6.8,2.7,17.1,0.5,23.1-3     c6.2-3.6,12.2-10.8,13.8-17.9c1.7-7.7,1.4-16.3-3-23.1c-4.5-7-10.3-10.8-17.9-13.8c-13.2-5.2-26.4-10.4-39.5-15.6     c-31.6-12.5-63.3-24.9-94.9-37.4c-38.2-15.1-76.4-30.1-114.7-45.2c-33-13-65.9-26-98.9-38.9c-15.8-6.2-31.5-13.1-47.5-18.7     c-8.8-3.1-15-0.8-22.4,2.1c-8.3,3.3-16.5,6.5-24.8,9.8c-29.9,11.8-59.9,23.6-89.8,35.4c-37.9,14.9-75.8,29.8-113.6,44.8     c-34.3,13.5-68.7,27-103,40.6c-18.8,7.4-37.5,14.8-56.3,22.2c-0.9,0.3-1.7,0.7-2.6,1c-6.3,2.5-11.3,5.3-15.6,10.8     c-3.9,5.1-6.7,11.6-6.4,18.2c0.2,5.3,1.6,10.4,4.1,15.1c3.8,7.2,10.7,11,17.9,13.8c20.6,8.1,41.1,16.2,61.7,24.3     c37.2,14.7,74.5,29.3,111.7,44c17.3,6.8,34.6,13.6,51.9,20.4c28.1,11.1,56.2,22.1,84.3,33.2c28.4,11.2,56.5,23.1,85.2,33.5     c11.3,4.1,20.1-0.6,30-4.6c15.2-6,30.5-12,45.7-18c33.9-13.4,67.9-26.7,101.8-40.1c13.4-5.3,26.8-10.6,40.2-15.8     c35.6-14,71.3-28.1,106.9-42.1c28-11,56-22.1,84-33.1c1.5-0.6,3-1.2,4.5-1.8c7.5-3,13.7-6.6,17.9-13.8c3.8-6.4,5.4-15.9,3-23.1     c-2.3-7.3-6.8-14.3-13.8-17.9C916.4,306.1,907.4,303.7,900,306.6z"/></g></g></g><text x="0" y="1039" fill="#000000" font-size="5px" font-weight="bold" font-family="'Helvetica Neue', Helvetica, Arial-Unicode, Arial, Sans-serif">Created by shashank singh</text><text x="0" y="1044" fill="#000000" font-size="5px" font-weight="bold" font-family="'Helvetica Neue', Helvetica, Arial-Unicode, Arial, Sans-serif">from the Noun Project</text></svg>