<svg width="210mm" height="297mm" viewBox="0 0 210 297" xmlns="http://www.w3.org/2000/svg"><path style="fill:#000;stroke-width:.264583" d="M80.155 228.312c-.68-.17-27.954-10.798-30.956-12.063-1.584-.667-4.496-2.62-5.982-4.009-2.567-2.401-4.613-6.149-5.4-9.894-.592-2.81-.592-122.025 0-124.834 1.426-6.78 5.808-11.681 13.029-14.57 1.422-.57 8.539-3.381 15.815-6.249 13.207-5.205 13.233-5.214 15.346-5.23 1.823-.012 2.33.092 3.654.753 3.657 1.824 6.542 6.109 8.197 12.174l.577 2.117.073 72.36c.08 78.115.141 74.243-1.265 78.585-1.147 3.537-3.192 6.848-5.395 8.731-2.282 1.951-5.185 2.755-7.693 2.13zm3.59-7.937c1.282-1.347 2.473-3.797 3.222-6.627l.596-2.25V68.36l-.596-2.249c-1.072-4.049-3.343-7.673-4.808-7.673-.63 0-28.939 11.007-31.02 12.06-1.833.93-4.245 3.297-5.218 5.122-1.704 3.198-1.608-.65-1.608 64.31 0 64.96-.096 61.112 1.608 64.31.941 1.765 3.355 4.169 5.084 5.062 1.946 1.005 30.448 12.1 31.109 12.11.404.006.999-.371 1.63-1.036zm-6.29-69.588c-1.639-1-1.666-1.177-1.665-10.911.001-8.272.033-8.862.518-9.658 1.29-2.115 4.215-2.206 5.808-.18.536.681.552.973.552 9.89 0 8.919-.016 9.21-.552 9.892-1.176 1.495-3.13 1.9-4.66.967zm26.49 60.326c-.302-.124-.868-.603-1.256-1.065-.56-.666-.706-1.114-.706-2.173 0-1.196.106-1.44 1.027-2.36l1.027-1.028h35.774l.07-26.172.07-26.173.661-.717c1.342-1.454 3.15-1.725 4.706-.707 1.441.945 1.38-.408 1.38 30.212v28.327l-.906.989-.906.988-20.195.052c-11.107.029-20.442-.05-20.745-.173zm61.141-45.225c-.582-.268-1.267-.849-1.521-1.291-.525-.913-.605-2.462-.171-3.32.16-.318 4.179-4.478 8.928-9.243l8.636-8.666h-76.92l-1.028-1.027c-.932-.931-1.027-1.156-1.027-2.412s.095-1.48 1.027-2.413l1.027-1.027H180.958l-8.636-8.665c-4.75-4.766-8.767-8.925-8.928-9.243-.848-1.677.06-3.977 1.853-4.694 2.292-.917 1.79-1.316 15.218 12.115 12.942 12.944 12.748 12.712 12.36 14.787-.128.692-2.46 3.172-11.965 12.729-11.302 11.364-12.966 12.858-14.319 12.858-.218 0-.873-.22-1.455-.488zm-23.782-36.301c-1.565-1.231-1.486.272-1.486-28.142V75.371h-35.78l-1.028-1.028c-.931-.931-1.027-1.156-1.027-2.412s.096-1.48 1.027-2.412l1.027-1.028h40.606l1.027 1.028 1.027 1.027v28.619c0 31.426.09 29.71-1.578 30.573-1.14.589-2.966.516-3.815-.151z"/></svg>