<svg width="210mm" height="297mm" viewBox="0 0 210 297" xmlns="http://www.w3.org/2000/svg"><path style="fill:#000;stroke-width:.207866" d="M19.896 209.704c-.747-.471-1.31-1.407-1.31-2.178 0-.283.183-1.293.406-2.245.417-1.783 1.662-7.22 4.06-17.737 2.18-9.553 4.04-17.692 4.586-20.06.277-1.2 1.068-4.66 1.757-7.69 3.65-16.037 3.591-15.802 3.918-15.532.266.22.271.196.036-.18-.232-.374-.117-1.103.817-5.198.598-2.619 1.594-7.007 2.214-9.75 1.226-5.426 1.47-6.15 2.243-6.657.44-.288 15.284-2.544 30.06-4.567 1.2-.165 2.971-.413 3.935-.552 1.49-.215 1.78-.208 1.932.045.098.164.811 1.467 1.586 2.896 1.31 2.42 1.377 2.603.96 2.66-.435.062-.452.193-.696 5.197-.138 2.824-.296 5.462-.351 5.862-.1.716-.036.787 3.801 4.274a1436.65 1436.65 0 0 0 6.888 6.216l2.984 2.67 2.524-.348c1.388-.19 2.71-.335 2.94-.321.542.034 2.558 2.225 2.158 2.347-1.022.31-8.18 1.12-8.565.97-.25-.098-2.236-1.8-4.415-3.783-4.734-4.309-7.036-6.378-7.908-7.107l-.646-.539-.137 2.332c-.075 1.282-.23 4.015-.347 6.073-.115 2.058-.348 6.08-.516 8.938-.168 2.858-.304 5.477-.304 5.82.001.549.22.776 1.818 1.886l8.364 5.808c3.601 2.5 7.243 5.045 8.093 5.654.85.61 1.618 1.083 1.71 1.052.09-.031 2.784-2.006 5.986-4.388l5.822-4.332.056-5.022.055-5.023.936.838c1.714 1.534 1.505 1.51 2.867.325.67-.582 1.28-1.059 1.354-1.059.075 0 .161 2.162.192 4.804l.056 4.804 8.003 4.227c4.401 2.325 8.12 4.232 8.264 4.238.207.01 6.445-3.644 14.975-8.77l.686-.411-.124-1.38c-.162-1.814-1.56-26.475-1.56-27.523 0-.446-.077-.779-.171-.74-.095.037-.957 1.004-1.916 2.147l-3.494 4.157c-.962 1.144-2.87 3.417-4.24 5.052-1.37 1.635-2.697 3.108-2.95 3.274-.414.271-.906.207-4.913-.636-2.45-.516-4.526-.961-4.615-.99-.089-.028.351-.557.977-1.176l1.139-1.124 2.764.57c1.52.313 2.919.613 3.107.666.244.068 1.583-1.377 4.677-5.046l6.795-8.062 2.461-2.92-.128-3.119c-.207-5.017-.346-6.34-.666-6.34-.155 0-.282-.034-.282-.077 0-.042.662-1.352 1.471-2.91.92-1.771 1.591-2.833 1.79-2.833.678 0 33.884 4.789 34.607 4.99 1.38.386 1.655.961 2.748 5.735a25716.35 25716.35 0 0 1 6.572 28.77c.559 2.458 2.008 8.818 3.221 14.134a8206.766 8206.766 0 0 1 2.698 11.849c.27 1.2.87 3.82 1.332 5.82 3.107 13.456 4.18 18.361 4.18 19.108 0 1.19-.993 2.28-2.225 2.445-.48.065-1.042.044-1.247-.046-.206-.09-.462-.142-.569-.117-.107.025-1.37-.145-2.806-.378a2881.4 2881.4 0 0 0-11.965-1.878c-5.145-.8-11.178-1.738-13.408-2.086-20.39-3.183-18.395-2.924-20.03-2.599-.816.163-6.208 1.19-11.981 2.284-5.774 1.093-13.988 2.652-18.253 3.465l-7.756 1.476-3.573-.669a631.623 631.623 0 0 1-5.652-1.084 143.94 143.94 0 0 0-2.702-.52c-.728-.121-13.185-2.488-21.726-4.127l-5.929-1.137-2.49.405c-2.495.405-19.701 3.083-20.678 3.217-.286.04-5.384.833-11.329 1.764l-11.433 1.789c-2.227.348-2.912.331-3.575-.087zm176.235-.594c.259-.33.251-.337-.079-.079-.2.157-.363.32-.363.364 0 .171.17.061.442-.285zm-99.802-2.41c0-.04-.21-.25-.468-.468l-.468-.396.396.468c.372.44.54.562.54.396zm-1.663-1.663c0-.04-.21-.25-.468-.468l-.468-.396.396.468c.372.44.54.562.54.396zm-46.952-.5c.259-.33.252-.337-.078-.079-.2.157-.364.32-.364.364 0 .171.17.061.442-.285zm-17.22-1.313a20071.04 20071.04 0 0 0 27.9-4.35c2.972-.465 6.064-.945 6.872-1.067l1.469-.221.264-4.813c.145-2.648.35-6.123.456-7.724.329-4.972.65-11.142.68-13.055l.028-1.83-1.787-1.14-1.786-1.139-2.579 1.592c-1.418.875-3.748 2.315-5.177 3.199-1.429.884-4.095 2.52-5.924 3.635a612.756 612.756 0 0 0-4.573 2.811c-.686.43-3.352 2.072-5.924 3.646-2.573 1.575-5.613 3.44-6.756 4.146a743.43 743.43 0 0 1-3.88 2.377c-1.325.805-1.836 1.236-1.936 1.636-.075.3-.74 3.215-1.477 6.48-.738 3.264-1.392 6.098-1.455 6.298-.063.2-.058.364.01.364.07 0 2.578-.38 5.575-.845zm75.812-15.784c0-9.146-.056-16.63-.126-16.63s-1.215.815-2.546 1.812c-6.28 4.7-8.822 6.503-9.165 6.503-.205 0-2.56-1.52-5.234-3.378l-6.003-4.17c-.628-.436-2.873-2.001-4.988-3.478l-3.845-2.684-.126.6c-.07.33-.192 1.91-.274 3.513l-.147 2.913 1.96 3.602a953.583 953.583 0 0 1 2.956 5.473 357.873 357.873 0 0 0 2.03 3.741 783.265 783.265 0 0 1 1.597 2.91c4.052 7.443 5.065 9.362 5.065 9.597 0 .152.062.277.138.277.076 0 .492.645.924 1.434.815 1.487.786 1.467 2.61 1.81l7.171 1.34c3.659.684 6.746 1.281 6.86 1.328.114.046.418.09.676.1l.467.016zm7.38 16.308c.914-.177 4.328-.826 7.587-1.443 3.258-.617 9.619-1.826 14.135-2.687 4.515-.86 8.608-1.626 9.094-1.701 1.053-.163.997.368.644-6.134l-.244-4.49-3.656-1.889c-2.01-1.038-4.919-2.552-6.462-3.364a435.592 435.592 0 0 0-4.7-2.436l-1.894-.96-4.34 2.58a5721.676 5721.676 0 0 0-8.187 4.876l-3.848 2.297-.055 7.836c-.03 4.31.017 7.836.104 7.836s.907-.144 1.821-.321zm79.3.163c0-.087-.566-2.636-1.259-5.664-3.11-13.599-6.838-29.962-8.217-36.063-.517-2.287-1.005-4.318-1.084-4.515-.116-.288-1.186.587-5.466 4.469a2208.462 2208.462 0 0 1-7.062 6.386c-.958.857-2.353 2.12-3.099 2.806-.746.686-4.162 3.773-7.592 6.86-3.429 3.086-6.789 6.138-7.465 6.78l-1.231 1.167.248 4.653c.137 2.559.299 5.132.36 5.719l.11 1.066 3.47.547c1.908.3 6.183.969 9.498 1.484 3.315.516 6.964 1.086 8.107 1.267 21.742 3.44 20.682 3.284 20.682 3.038zm-99.983-.537c0-.04-.21-.25-.468-.468l-.468-.396.396.468c.373.44.54.562.54.396zm-43.626-.5c.259-.33.252-.337-.078-.079-.2.157-.364.32-.364.364 0 .171.17.061.442-.285zm2.08-2.079c.258-.33.25-.337-.08-.078-.2.157-.363.32-.363.363 0 .171.17.061.442-.285zm32.754-3.622a759.5 759.5 0 0 1-3.783-6.927c-1.233-2.287-2.779-5.14-3.435-6.34-.657-1.2-1.592-2.93-2.079-3.846-.486-.914-1.011-1.8-1.167-1.967-.244-.262-.284-.219-.287.312-.001.339-.094 2.206-.205 4.15-.291 5.086-.831 14.895-.831 15.102 0 .097.178.176.395.176.363 0 12.12 2.206 12.597 2.363.477.158.257-.394-1.205-3.023zm-43.03-18.07c6.723-4.127 13.159-8.087 14.302-8.8a594.308 594.308 0 0 1 4.21-2.596c1.171-.715 2.128-1.361 2.126-1.436-.003-.076-3.908-2.616-8.678-5.645-4.77-3.03-8.996-5.79-9.39-6.133-.395-.343-.642-.5-.55-.347.092.152-.194.048-.635-.231-5.472-3.464-5.457-3.456-5.565-3.1-.058.194-.292 1.194-.52 2.223a1338.13 1338.13 0 0 1-1.554 6.86 13537.643 13537.643 0 0 0-5.01 21.93c-.271 1.2-.631 2.767-.8 3.481-.17.715-.275 1.3-.234 1.3.04 0 5.574-3.378 12.297-7.505zm77.43 2.07c6.122-3.651 6.643-4.005 6.28-4.27-.218-.16-2.033-1.141-4.034-2.181-2-1.04-4.877-2.54-6.392-3.335l-2.754-1.444v7.605c0 4.183.05 7.605.113 7.605.062 0 3.116-1.791 6.788-3.98zm26.056 1.953c-.06-.543-.263-3.84-.452-7.327-.188-3.487-.363-6.365-.388-6.397-.038-.047-12.55 7.352-12.741 7.534-.033.032.434.315 1.04.63 3.353 1.744 10 5.255 11.077 5.852.685.38 1.32.692 1.41.693.09.002.114-.441.054-.985zm8.837-3.403c1.651-1.5 3.89-3.542 4.977-4.536 1.086-.994 4.5-4.083 7.587-6.866 3.087-2.783 6.085-5.489 6.663-6.014l5.027-4.558c2.235-2.025 3.933-3.718 3.877-3.864-.055-.142-.4-.412-.766-.598-.799-.406-2.918-1.608-3.038-1.724-.047-.045.093-.293.31-.55l.396-.47-.518.448-.519.448-1.455-.832c-4.87-2.785-16.29-9.106-16.45-9.106-.176 0-5.008 10.193-8.819 18.604l-1.601 3.534.266 4.261c.282 4.516.423 7.061.65 11.693.076 1.572.2 2.858.275 2.858.075 0 1.487-1.228 3.138-2.728zm-85.1-14.042c-.056-.055-.348.061-.65.259l-.547.359.582.383.582.384.066-.642c.037-.353.022-.688-.034-.743zm-1.675-2.29c1.28-.77 1.994-1.332 2.048-1.61.046-.236.33-5.059.634-10.718.303-5.66.616-11.295.695-12.524.137-2.118.124-2.234-.256-2.234-.22 0-1.953.28-3.85.623-3.023.547-11.817 2.13-23.197 4.176-1.943.349-3.593.698-3.666.776-.13.138-1.447 5.707-1.365 5.772.023.018 1.586 1.01 3.472 2.206 6.823 4.323 21.328 13.526 22.242 14.112.514.33 1.012.6 1.106.602.095.002 1.056-.53 2.137-1.18zm86.952-16.021c1.874-4.032 3.37-7.362 3.324-7.4-.265-.216-9.158-5.12-9.287-5.12-.086 0-.088 1.145-.006 2.546.377 6.379.995 17.404 1.03 18.344.02.572.085 1.173.144 1.335.122.343.205.175 4.795-9.705zm-111.605 5.492c0-.04-.21-.25-.468-.468l-.468-.396.396.468c.372.44.54.563.54.396zm138.13-3.082c.484.22.514.203.41-.227-.062-.256-1.234-5.369-2.604-11.363-1.37-5.993-2.528-10.935-2.574-10.98-.077-.078-8.043-1.28-8.562-1.293-.128-.003-.494.579-.814 1.293-.32.715-.998 2.188-1.506 3.274-2.624 5.607-3.789 8.156-3.789 8.294 0 .132 1.98 1.29 5.924 3.462 1.524.839 10.866 6.076 11.917 6.68.89.511.895.52.52.966l-.38.45.468-.397c.39-.33.556-.357.99-.16zm-141.664-.443c0-.035-.35-.385-.78-.78l-.78-.716.717.78c.667.725.843.875.843.716zm144.078-2.795c.258-.33.25-.337-.079-.078-.2.156-.364.32-.364.363 0 .171.171.061.443-.285zm-1.066-6.574c0-.043-.164-.207-.364-.364-.33-.259-.337-.251-.078.078.271.347.442.457.442.286zm-134.973-2.32c3.524-.633 9.26-1.66 12.747-2.281 10.101-1.802 10.85-1.943 10.97-2.063.123-.124.743-10.097.633-10.194-.08-.072-28.462 3.994-28.531 4.087-.027.036-.585 2.45-1.24 5.366-.654 2.915-1.241 5.511-1.303 5.768-.062.258-.016.468.102.468s3.098-.518 6.622-1.15zm113.348-3.685a710.41 710.41 0 0 1 2.735-5.87c.65-1.371 1.152-2.525 1.115-2.563-.148-.153-16.636-2.459-16.754-2.343-.2.197.322 8.096.549 8.315.11.107 2.166 1.29 4.567 2.629 5.58 3.11 5.773 3.214 6.025 3.21.116-.002.91-1.522 1.763-3.378zm-53.423 18.226c-7.21-6.656-16.362-17.005-21.372-24.167-8.943-12.784-13.576-23.745-14.367-33.992-1.312-16.995 9-32.898 25.217-38.89 4.442-1.641 8.83-2.295 14.337-2.134 6.8.197 12.326 1.753 17.972 5.059 9.474 5.548 16.115 14.754 18.32 25.396 1.632 7.876.742 15.865-2.81 25.244-.378.998-1.158 2.801-1.735 4.008-.576 1.208-1.048 2.225-1.048 2.261 0 .037-.526 1.04-1.17 2.228-5.227 9.662-12.586 19.27-22.413 29.264-3.818 3.882-8.113 7.923-8.422 7.923-.07 0-1.199-.99-2.509-2.2zm4.997-7.648c0-.043-.164-.207-.364-.364-.33-.259-.337-.251-.078.079.271.346.442.456.442.285zm-2.2-1.973c.061-.099-.097-.356-.351-.571-.462-.39-.462-.39-.099.04.2.239.302.496.225.572-.076.077-.082.14-.012.14.069 0 .176-.082.237-.18zm.771-.807c.259-.33.252-.337-.078-.078-.2.157-.364.32-.364.363 0 .171.17.061.442-.285zm-1.897-.546c0-.043-.164-.207-.364-.364-.33-.258-.337-.251-.078.079.271.346.442.456.442.285zm-1.663-1.663c0-.043-.164-.207-.364-.364-.33-.258-.337-.251-.078.079.271.346.442.456.442.285zm-4.989-4.989c0-.043-.163-.207-.363-.364-.33-.258-.337-.25-.079.079.272.346.442.456.442.285zm-3.326-3.326c0-.043-.163-.207-.363-.363-.33-.259-.337-.252-.079.078.272.346.442.456.442.285zm-3.325-3.326c0-.043-.164-.206-.364-.363-.33-.259-.337-.251-.079.078.272.346.443.457.443.285zm-1.455-1.448c0-.04-.21-.25-.468-.468l-.468-.396.396.468c.372.44.54.563.54.396zm-1.871-1.877c0-.043-.164-.207-.364-.364-.33-.259-.337-.251-.079.078.272.347.443.457.443.286zm-3.326-3.326c0-.043-.164-.207-.364-.364-.33-.259-.337-.251-.078.078.271.347.442.457.442.286zm26.504-3.437c5.607-1.197 10.246-3.724 14.34-7.813 3.291-3.288 5.357-6.563 6.817-10.81 1.13-3.283 1.483-5.523 1.474-9.354-.008-3.727-.406-6.126-1.559-9.393-4.28-12.13-16.708-20.089-29.284-18.752-1.315.14-2.648.263-2.962.273-.314.01-.572.089-.572.174 0 .086-.178.156-.397.156-.748 0-4.13 1.22-6.075 2.192-3.683 1.84-6.656 4.163-9.166 7.162-5.002 5.977-7.317 13.324-6.607 20.973 1.1 11.858 9.643 21.88 21.206 24.879 3.786.982 9.048 1.11 12.785.313zm1.246-56.558c.207-.229.33-.416.272-.416-.057 0-.273.187-.48.416-.207.229-.33.416-.272.416.057 0 .273-.187.48-.416zm-14.447-.91c0-.043-.163-.207-.363-.364-.33-.258-.337-.251-.079.079.272.346.442.456.442.285zm16.11-.753c.207-.229.33-.416.272-.416-.057 0-.273.187-.48.416-.207.229-.33.416-.272.416.057 0 .273-.187.48-.416zm-17.773-.91c0-.043-.163-.207-.363-.364-.33-.258-.337-.251-.079.079.272.346.442.456.442.285zm19.566-.909c.259-.33.252-.337-.078-.078-.2.157-.364.32-.364.363 0 .171.17.061.442-.285zM98.2 57.04c0-.037-.257-.295-.571-.572l-.572-.504.504.572c.471.534.64.667.64.504z"/></svg>