<svg xmlns="http://www.w3.org/2000/svg" xmlns:xlink="http://www.w3.org/1999/xlink" width="1080" zoomAndPan="magnify" viewBox="0 0 810 809.999993" height="1080" preserveAspectRatio="xMidYMid meet" version="1.0"><defs><clipPath id="46b63088ce"><path d="M 21.234375 171.167969 L 416.710938 171.167969 L 416.710938 243.046875 L 21.234375 243.046875 Z M 21.234375 171.167969 " clip-rule="nonzero"/></clipPath><clipPath id="610b160a2e"><path d="M 21.234375 566.929688 L 416.710938 566.929688 L 416.710938 638.808594 L 21.234375 638.808594 Z M 21.234375 566.929688 " clip-rule="nonzero"/></clipPath><clipPath id="88e4c7830f"><path d="M 21.234375 369.046875 L 697.972656 369.046875 L 697.972656 440.929688 L 21.234375 440.929688 Z M 21.234375 369.046875 " clip-rule="nonzero"/></clipPath><clipPath id="416e9722bb"><path d="M 469 138 L 787 138 L 787 672.632812 L 469 672.632812 Z M 469 138 " clip-rule="nonzero"/></clipPath></defs><g clip-path="url(#46b63088ce)"><path fill="#f4753c" d="M 416.710938 243.046875 L 21.234375 243.046875 L 21.234375 171.167969 L 416.710938 171.167969 Z M 416.710938 243.046875 " fill-opacity="1" fill-rule="nonzero"/></g><g clip-path="url(#610b160a2e)"><path fill="#f4753c" d="M 416.710938 638.808594 L 21.234375 638.808594 L 21.234375 566.929688 L 416.710938 566.929688 Z M 416.710938 638.808594 " fill-opacity="1" fill-rule="nonzero"/></g><g clip-path="url(#88e4c7830f)"><path fill="#f4753c" d="M 697.972656 440.929688 L 21.234375 440.929688 L 21.234375 369.046875 L 697.972656 369.046875 Z M 697.972656 440.929688 " fill-opacity="1" fill-rule="nonzero"/></g><g clip-path="url(#416e9722bb)"><path fill="#f4753c" d="M 786.617188 406.3125 L 519.117188 673.8125 L 469.257812 623.953125 L 686.898438 406.3125 L 469.257812 188.671875 L 519.117188 138.8125 Z M 786.617188 406.3125 " fill-opacity="1" fill-rule="nonzero"/></g></svg>