<?xml version="1.0" encoding="UTF-8" standalone="no"?>
<!-- Created with Inkscape (http://www.inkscape.org/) -->

<svg
   width="210mm"
   height="297mm"
   viewBox="0 0 210 297"
   version="1.1"
   id="svg5"
   inkscape:version="1.1.1 (c3084ef, 2021-09-22)"
   sodipodi:docname="project-icon.svg"
   xmlns:inkscape="http://www.inkscape.org/namespaces/inkscape"
   xmlns:sodipodi="http://sodipodi.sourceforge.net/DTD/sodipodi-0.dtd"
   xmlns="http://www.w3.org/2000/svg"
   xmlns:svg="http://www.w3.org/2000/svg">
  <sodipodi:namedview
     id="namedview7"
     pagecolor="#ffffff"
     bordercolor="#666666"
     borderopacity="1.0"
     inkscape:pageshadow="2"
     inkscape:pageopacity="0.0"
     inkscape:pagecheckerboard="0"
     inkscape:document-units="mm"
     showgrid="false"
     inkscape:zoom="0.57994529"
     inkscape:cx="396.58914"
     inkscape:cy="561.25984"
     inkscape:window-width="1312"
     inkscape:window-height="847"
     inkscape:window-x="0"
     inkscape:window-y="25"
     inkscape:window-maximized="0"
     inkscape:current-layer="layer1" />
  <defs
     id="defs2" />
  <g
     inkscape:label="Layer 1"
     inkscape:groupmode="layer"
     id="layer1">
    <path
       style="fill:#000000;stroke-width:0.323408"
       d="m 159.04897,230.31127 c -38.71977,-13.17996 -49.197,-16.86877 -49.72408,-17.50686 -0.74012,-0.896 -0.7202,-2.2664 0.045,-3.08773 0.33611,-0.36048 4.66564,-2.44501 9.62139,-4.6319 4.95576,-2.18686 14.61354,-6.44973 21.46168,-9.47302 19.28457,-8.51363 31.2667,-13.801 38.25899,-16.88266 4.63486,-2.04271 6.61962,-2.76774 7.18686,-2.62538 1.01236,0.254 2.09522,1.42257 2.09522,2.26083 0,0.56283 -5.06406,14.79065 -16.35635,45.95421 -2.67168,7.37317 -3.33642,8.60289 -4.62014,8.54738 -0.29165,-0.0127 -3.87742,-1.16227 -7.96856,-2.55487 z m 5.27466,-13.18835 c 0.73924,-0.6369 7.49997,-19.01513 7.49997,-20.3877 0,-1.15509 -1.18832,-2.33174 -2.35487,-2.33174 -0.52166,0 -3.91632,1.30981 -7.54372,2.91069 -3.62739,1.60084 -9.61505,4.23272 -13.30599,5.84858 -6.82141,2.98638 -8.16607,3.86061 -8.16607,5.30899 0,1.73226 0.99729,2.24228 11.3193,5.78928 5.4252,1.86425 10.32082,3.39818 10.87921,3.4087 0.55839,0.0126 1.31087,-0.23562 1.67217,-0.5468 z m -8.62251,-7.02988 c -2.7307,-0.95759 -5.02725,-1.80338 -5.10342,-1.87952 -0.0761,-0.0761 3.01654,-1.54354 6.8727,-3.26075 3.8562,-1.71724 7.05563,-3.0779 7.10981,-3.02372 0.0544,0.0544 -0.55185,1.91233 -1.34684,4.12917 -1.85033,5.15972 -2.11691,5.8129 -2.36402,5.7926 -0.11201,-0.009 -2.43754,-0.80022 -5.16823,-1.75778 z m -49.85289,-7.64815 c -4.58666,-0.70891 -11.269911,-1.70578 -45.217909,-6.7447 -13.219075,-1.96214 -24.709484,-3.71876 -25.534256,-3.90357 -5.193443,-1.16387 -10.074517,-6.15194 -11.545196,-11.79826 -0.938356,-3.60258 -0.575672,-6.70741 1.241283,-10.62634 0.974109,-2.10099 40.150145,-61.29449 42.294851,-63.90588 1.514524,-1.84408 4.745199,-4.41703 7.099696,-5.654323 4.49419,-2.36162 9.343591,-2.977059 14.064917,-1.785022 2.781294,0.702245 4.013484,1.653866 4.013484,3.099705 0,0.49164 -2.052155,3.89803 -5.336244,8.85767 -2.934938,4.43237 -5.336247,8.18784 -5.336247,8.34553 0,0.15789 1.855579,0.51966 4.123469,0.80444 37.265242,4.67938 51.359862,6.47519 51.448452,6.55511 0.10695,0.0963 -1.12597,4.67381 -1.30778,4.85559 -0.0526,0.0526 -12.68359,-1.49303 -28.06916,-3.43457 -15.385566,-1.94149 -28.410324,-3.52732 -28.943948,-3.52407 -0.923479,0.004 -1.668743,1.05619 -15.467137,21.80318 -7.973299,11.9885 -14.716141,21.88138 -14.984098,21.98423 -0.838134,0.32157 -1.623691,0.20868 -3.176103,-0.45679 -7.893998,-3.38377 -16.986098,1.5482 -16.986098,9.21405 0,2.95932 1.501474,6.25636 3.746947,8.22791 2.492516,2.18848 3.399147,2.41019 19.700168,4.81857 8.360112,1.23514 26.878663,3.9714 41.152324,6.08059 14.273705,2.10925 25.952765,3.92626 25.953545,4.03791 10e-4,0.24846 -8.11682,3.85698 -8.56893,3.80849 -0.17795,-0.0163 -2.14256,-0.31559 -4.36603,-0.65945 z m 0.80856,-10.95425 c -7.115029,-1.02869 -21.959434,-3.13903 -32.987684,-4.68976 -12.361626,-1.7382 -20.335932,-2.99802 -20.793435,-3.28499 -0.987711,-0.61961 -1.494621,-1.9813 -1.077986,-2.89567 0.411371,-0.90288 7.910572,-10.82349 8.768809,-11.60019 0.82451,-0.74614 1.613343,-0.70829 5.98762,0.28781 2.849937,0.64882 3.702225,0.97732 4.285165,1.65164 0.856961,0.99122 0.898675,1.47726 0.236687,2.75742 -0.678262,1.31165 -1.620997,1.4481 -4.949961,0.71657 l -2.87223,-0.63112 -1.857349,2.43119 c -2.328168,3.0475 -2.379979,3.18873 -1.252431,3.41489 1.920291,0.38531 13.075676,1.89006 13.169333,1.77652 0.05414,-0.0659 3.785378,-4.9947 8.291598,-10.95348 4.506232,-5.95881 10.433406,-13.79399 13.171467,-17.41151 2.738051,-3.61754 4.930433,-6.62175 4.871846,-6.67602 -0.05853,-0.0544 -2.871611,-0.48945 -6.251225,-0.96698 -3.37962,-0.47752 -6.520756,-0.94307 -6.980321,-1.03459 -0.724391,-0.14416 -1.035015,0.10225 -2.334643,1.85096 -0.824495,1.10951 -1.430093,2.12892 -1.345766,2.26537 0.08424,0.13639 0.730463,0.34552 1.435782,0.46479 2.83359,0.47872 3.904354,2.83773 2.06276,4.54446 -0.470684,0.43618 -0.998881,0.79306 -1.173864,0.79306 -0.977927,0 -7.950158,-1.74423 -8.576453,-2.14556 -0.408164,-0.26169 -0.881165,-0.84129 -1.051128,-1.28829 -0.343208,-0.9027 -0.106135,-1.50988 1.310935,-3.35772 0.477431,-0.62257 1.894948,-2.5263 3.150033,-4.2305 2.957777,-4.01622 3.134086,-4.17807 4.55118,-4.17838 0.654346,-7e-5 5.464745,0.60962 10.689809,1.35492 9.335232,1.33161 9.507832,1.34424 9.945452,0.72789 1.61332,-2.27203 4.2169,-5.40915 4.70687,-5.67135 0.65495,-0.35066 25.5559,3.0142 26.92569,3.63833 0.43185,0.1967 0.96096,0.78207 1.17576,1.30065 0.47375,1.14374 0.16421,1.96016 -1.52624,4.02289 -0.8294,1.01218 -1.03188,1.45442 -0.71617,1.56406 0.24203,0.0842 4.14558,0.67907 8.67425,1.32225 4.52873,0.64319 8.47922,1.30065 8.77891,1.46106 0.67735,0.36263 1.30171,2.07414 1.02894,2.82075 -0.3994,1.09326 -31.33726,41.0544 -32.10044,41.46286 -0.88081,0.47142 -1.12357,0.44593 -15.37157,-1.61401 z m 14.6808,-5.46743 c 0.78157,-1.04412 1.4129,-2.02341 1.40299,-2.17616 -0.009,-0.15265 -1.08228,-0.51935 -2.38298,-0.81463 -2.85945,-0.64917 -4.01832,-1.68658 -3.70405,-3.31595 0.23519,-1.22035 1.26508,-2.13045 2.40944,-2.12964 0.46943,3.4e-4 2.308,0.35237 4.08565,0.78269 3.47576,0.84099 3.54302,0.82944 4.70957,-0.80881 l 0.63476,-0.89147 -2.34776,-0.53123 c -1.29129,-0.29207 -2.68174,-0.74839 -3.08988,-1.01375 -1.60241,-1.04191 -1.54964,-3.11985 0.10695,-4.20519 0.81398,-0.53334 1.01014,-0.51926 4.77072,0.34209 l 3.92185,0.8984 0.90335,-1.01104 c 0.49684,-0.55608 0.90335,-1.12019 0.90335,-1.25364 0,-0.13351 -1.19713,-0.52786 -2.66028,-0.87647 -2.94713,-0.70216 -3.8079,-1.31817 -3.8079,-2.72514 0,-1.38404 0.29379,-1.93498 1.31281,-2.46195 0.82437,-0.42633 1.24356,-0.3934 4.40767,0.34723 1.92319,0.45016 3.71495,0.88124 3.9818,0.95797 0.29206,0.0838 0.84275,-0.36477 1.38284,-1.12636 l 0.89779,-1.26589 -1.22116,-0.3391 c -0.67166,-0.18644 -1.36672,-0.34083 -1.54461,-0.34296 -0.90785,-0.009 -2.86545,-0.76331 -3.41679,-1.3146 -1.3558,-1.35582 -0.26726,-4.17982 1.6136,-4.18611 0.45814,-0.001 2.47332,0.38359 4.47812,0.85564 2.00487,0.47209 3.69004,0.80079 3.74487,0.73041 0.0547,-0.0706 0.94136,-1.1958 1.97005,-2.50094 1.02863,-1.30519 1.74477,-2.48808 1.59134,-2.62863 -0.21039,-0.19285 -8.88752,-1.49822 -13.68316,-2.05866 -0.47572,-0.0556 -2.0445,1.85862 -10.02682,12.23484 -2.46306,3.20174 -7.39413,9.60271 -10.95788,14.22437 -3.56376,4.62168 -6.41342,8.46912 -6.33265,8.54991 0.21637,0.21637 11.72037,1.88841 13.23188,1.92313 1.21309,0.03 1.38209,-0.0885 2.71468,-1.86874 z m -19.55514,-5.185 c 1.70447,-2.21359 2.98913,-4.11958 2.85476,-4.23554 -0.24929,-0.2151 -16.508364,-2.57467 -17.738502,-2.5742 -0.484923,2.2e-4 -1.568772,1.15707 -3.819815,4.07702 -1.72853,2.24224 -3.056544,4.16303 -2.951095,4.26848 0.265466,0.26556 16.624424,2.62209 17.691213,2.54854 0.697312,-0.0479 1.463617,-0.83772 3.963439,-4.0843 z m 8.295,-10.76046 c 1.32798,-1.67999 1.33038,-1.68802 0.57349,-1.91975 -1.57738,-0.48288 -17.834165,-2.57031 -18.047548,-2.31732 -1.232833,1.46135 -2.321086,3.079 -2.171804,3.22827 0.177458,0.17741 16.111282,2.58703 17.592132,2.66028 0.50455,0.0257 1.11947,-0.46952 2.05373,-1.65148 z m 6.45414,-8.35147 c 0.75057,-0.89652 1.3099,-1.68476 1.24289,-1.75167 -0.0672,-0.0667 -3.90568,-0.64836 -8.53045,-1.29211 -4.62473,-0.64378 -8.80186,-1.24814 -9.282516,-1.34306 -0.755737,-0.14922 -1.025257,0.0385 -1.993534,1.38595 -0.615801,0.85718 -1.137805,1.70404 -1.160008,1.88187 -0.03848,0.2925 14.844378,2.61971 17.337918,2.71143 0.85083,0.03 1.24843,-0.23392 2.3857,-1.59241 z m 6.45007,-8.34072 c 0.74629,-0.94812 1.30787,-1.75748 1.24801,-1.79866 -0.2074,-0.1429 -17.57604,-2.48012 -18.2197,-2.45203 -0.56108,0.0257 -3.32549,3.11194 -3.01803,3.37064 0.0591,0.0497 3.30907,0.54403 7.22232,1.09857 3.91324,0.55448 7.98821,1.13793 9.05543,1.29645 1.06726,0.15862 2.03377,0.27026 2.14778,0.24846 0.11418,-0.0213 0.8179,-0.81544 1.56419,-1.76352 z m 6.31375,-8.18318 c 0.75962,-1.05737 1.06511,-1.73884 0.84148,-1.87705 -0.42422,-0.26213 -18.11667,-2.76067 -18.2408,-2.57589 -0.0479,0.0714 -0.64425,0.82919 -1.32503,1.68384 -0.68068,0.85464 -1.17472,1.61688 -1.09774,1.69384 0.11797,0.11797 7.33409,1.22441 12.59551,1.9311 0.82803,0.11128 2.21057,0.32072 3.07237,0.46517 2.82251,0.47368 2.87737,0.45623 4.15421,-1.32101 z m 25.38753,38.32536 c 0,-0.0838 1.91452,-3.4563 4.25449,-7.49399 10.39689,-17.94016 17.21327,-29.70659 19.93238,-34.40726 2.22214,-3.84154 2.81303,-5.09863 2.43232,-5.17452 -0.3327,-0.0663 -0.71786,-0.95793 -1.13774,-2.6327 -0.34937,-1.39281 -0.56668,-2.60059 -0.48334,-2.68392 0.0835,-0.0835 1.80529,0.0645 3.82663,0.32841 3.30332,0.43133 3.75176,0.56903 4.43323,1.36129 0.49386,0.57416 0.7152,1.1739 0.63497,1.72059 -0.0838,0.57128 -24.5863,43.546 -25.9704,45.54928 -0.13603,0.19714 -7.92254,3.5709 -7.92254,3.43286 z M 70.111613,166.88667 c -3.35751,-0.52677 -3.979041,-0.72109 -4.608575,-1.44085 -1.153437,-1.31879 -0.923582,-2.10968 1.45534,-5.00745 1.200655,-1.46252 2.546841,-3.14166 2.991528,-3.73142 1.288291,-1.70854 1.896703,-1.84948 5.452148,-1.26329 4.371818,0.72083 5.147146,1.01161 5.73655,2.15137 0.416503,0.80516 0.43596,1.14312 0.111609,1.92588 -0.677036,1.63448 -2.015777,1.9206 -5.609515,1.19887 -1.727216,-0.34681 -1.902806,-0.32499 -2.54239,0.3143 -0.377846,0.37802 -0.610852,0.76322 -0.517733,0.85631 0.09309,0.0932 0.885461,0.26 1.760777,0.37117 2.804111,0.35537 4.014552,1.69455 3.323606,3.67661 -0.634273,1.8195 -1.393686,1.91481 -7.553474,0.94843 z M 140.9817,139.07713 c -0.62852,-0.49437 -0.85216,-0.96523 -0.85216,-1.79413 0,-0.61808 1.38258,-6.0581 3.07241,-12.08895 1.6898,-6.03082 3.07238,-11.04485 3.07238,-11.14222 0,-0.0975 -1.49574,-0.17704 -3.32387,-0.17704 -3.59539,0 -4.53465,-0.33183 -5.09257,-1.79929 -0.36348,-0.95612 0.17614,-2.62278 0.99079,-3.05867 0.32543,-0.17397 2.47482,-0.31643 4.77662,-0.31643 h 4.18509 l 1.68073,-6.06392 c 0.92437,-3.33516 1.95743,-7.007617 2.29564,-8.160994 l 0.61492,-2.09705 -1.63356,-1.558082 c -4.39125,-4.188338 -4.50478,-10.816266 -0.25785,-15.063009 0.71763,-0.717672 2.0229,-1.629405 2.90051,-2.026034 l 1.59571,-0.721177 v -1.705859 c 0,-2.062942 0.45464,-3.161978 1.5062,-3.641113 1.21309,-0.552716 2.00714,-0.432634 2.87452,0.434747 0.67769,0.677712 0.7938,1.097068 0.7938,2.866734 v 2.07295 l 1.42859,0.545562 c 2.05259,0.783901 4.2102,2.822978 5.25988,4.971046 0.77095,1.577665 0.90364,2.250011 0.90732,4.596889 0.004,2.416106 -0.11291,2.980095 -0.96271,4.657518 -0.55107,1.087619 -1.6022,2.45567 -2.44373,3.180568 l -1.47673,1.27205 1.42264,5.066324 c 0.78242,2.78652 1.81568,6.44892 2.29612,8.13875 l 0.8735,3.07237 1.87944,0.16856 c 1.45631,0.13043 2.01743,0.33867 2.4923,0.92521 1.22326,1.5106 0.39213,3.67124 -1.57904,4.10541 -0.48423,0.10641 -0.9733,0.21766 -1.08684,0.24631 -0.11381,0.03 1.24139,5.21905 3.01093,11.53359 2.3721,8.46482 3.14854,11.68472 2.95538,12.25649 -0.37673,1.11546 -1.81974,2.09907 -2.7402,1.86794 -1.6354,-0.41052 -1.92134,-0.9568 -3.51033,-6.70481 -0.85768,-3.10247 -2.3716,-8.57175 -3.36424,-12.15399 -0.99263,-3.58218 -1.80477,-6.6052 -1.80477,-6.71784 0,-0.11236 -2.71925,-0.16512 -6.04277,-0.1167 l -6.04277,0.0882 -3.35712,12.12781 c -2.79476,10.09615 -3.49212,12.24973 -4.16268,12.8555 -1.00383,0.90689 -2.04723,0.92588 -3.15136,0.0573 z m 20.97714,-31.42799 c -0.0782,-0.22236 -1.02359,-3.52509 -2.10086,-7.33944 -1.07727,-3.814376 -2.02744,-7.003977 -2.1115,-7.088036 -0.31174,-0.311739 -0.53852,0.33526 -2.3934,6.826666 -1.04272,3.64915 -1.99371,6.94312 -2.11331,7.31995 -0.21467,0.67569 -0.15482,0.68514 4.32192,0.68514 3.49171,0 4.50654,-0.0932 4.39715,-0.40411 z m -1.77467,-20.374748 c 2.48577,-1.691804 3.24317,-4.477549 1.86854,-6.872428 -0.80222,-1.397642 -2.99422,-2.748982 -4.45907,-2.748982 -1.18746,0 -3.56453,1.295102 -4.34711,2.368431 -0.938,1.286503 -0.93213,4.339636 0.0126,5.612228 1.14696,1.548002 2.64906,2.368431 4.33625,2.368431 1.04537,0 1.85595,-0.227499 2.59057,-0.72768 z m -2.52562,46.167168 c -3.07708,-0.40326 -5.67769,-0.81613 -5.7791,-0.91755 -0.10134,-0.10135 0.0672,-1.20996 0.37418,-2.46353 0.51913,-2.1184 0.61976,-2.27919 1.42651,-2.27919 1.46186,0 8.58903,0.99623 8.82042,1.23289 0.11977,0.1223 0.44981,1.12738 0.73378,2.23337 0.28396,1.10601 0.60193,2.2339 0.70653,2.50642 0.1158,0.30147 0.0163,0.4809 -0.24887,0.45812 -0.24119,-0.0213 -2.9565,-0.36733 -6.03357,-0.77053 z"
       id="path854" />
  </g>
</svg>
